<svg xmlns="http://www.w3.org/2000/svg" xmlns:xlink="http://www.w3.org/1999/xlink"><symbol id="icon-shop"><path d="M10.975 8L11 7.5c0-.517-.067-1.018-.181-1.5h5.993l-.564 2h-5.273zM8.5 18a1.5 1.5 0 10.001 3.001A1.5 1.5 0 008.5 18zM19.805 3l-3.432 12H5.945l-.455-1.083A6.59 6.59 0 014.5 14a6.49 6.49 0 01-1.191-.114L4.615 17h13.239l3.474-12h1.929L24 3h-4.195zM13.5 18a1.5 1.5 0 100 3 1.5 1.5 0 000-3zM9 7.5A4.501 4.501 0 114.5 3C6.982 3 9 5.015 9 7.5zM7 7H5V5H4v2H2v1h2v2h1V8h2V7z" fill="currentColor"/></symbol></svg>